<svg version="1.0" xmlns="http://www.w3.org/2000/svg" width="346.667" height="346.667" viewBox="0 0 260 260"><path d="M115.5 5.7c-19 3.5-27.3 5.9-38.1 10.9-36.3 17-61.5 49.3-70.1 89.5-1.2 5.8-1.7 12.8-1.8 22.9 0 16.5.7 22 4.1 34.2 12.7 45.5 48.8 79.2 95.9 89.4 9.3 2 34.4 2.8 42 1.3 17.4-3.4 29.4-7.3 40.5-13.2 6.3-3.4 19.1-11.8 21.8-14.4 1-1 3.4-3.2 5.3-4.9 37.6-33.6 50.1-91.2 30.2-139.4-7.5-18.4-19.7-34.7-36.3-49-13.2-11.4-38.2-22.9-55.5-25.7-1.6-.3-4.9-.8-7.3-1.3-4.2-.7-26.9-1-30.7-.3z"/></svg>