<svg height="511pt" viewBox="-134 1 511 511.999" width="511pt" xmlns="http://www.w3.org/2000/svg"><path d="M136.688 144.93v-16.442c0-18.484 15.039-33.523 33.527-33.523 35.027 0 63.523-28.496 63.523-63.524V0h-30v31.438c0 18.488-15.039 33.523-33.523 33.523-35.028 0-63.528 28.5-63.528 63.527v16.442C46.919 152.344.5 203.445.5 265.19v125.62C.5 457.633 54.863 512 121.688 512s121.19-54.363 121.19-121.188v-125.62c0-61.747-46.417-112.848-106.19-120.262zm76.187 120.261v6.454h-76.188v-96.399c43.172 7.176 76.188 44.774 76.188 89.945zm-106.188-89.945v96.399H30.5v-6.454c0-45.171 33.02-82.77 76.188-89.945zm15 306.754c-50.28 0-91.187-40.906-91.187-91.188v-89.167h182.375v89.168c0 50.28-40.906 91.187-91.188 91.187zm0 0"/></svg>